<?xml version="1.0" encoding="UTF-8" standalone="no"?>
<!DOCTYPE svg PUBLIC "-//W3C//DTD SVG 1.1//EN"
 "http://www.w3.org/Graphics/SVG/1.1/DTD/svg11.dtd">
<!-- Generated by graphviz version 2.38.0 (20140413.2041)
 -->
<!-- Title: G Pages: 1 -->
<svg width="97pt" height="420pt"
 viewBox="0.00 0.00 97.00 420.00" xmlns="http://www.w3.org/2000/svg" xmlns:xlink="http://www.w3.org/1999/xlink">
<g id="graph0" class="graph" transform="scale(1 1) rotate(0) translate(4 416)">
<title>G</title>
<polygon fill="white" stroke="none" points="-4,4 -4,-416 93,-416 93,4 -4,4"/>
<g id="clust1" class="cluster"><title>cluster_Global</title>
<path fill="none" stroke="gray" d="M20,-8C20,-8 69,-8 69,-8 75,-8 81,-14 81,-20 81,-20 81,-392 81,-392 81,-398 75,-404 69,-404 69,-404 20,-404 20,-404 14,-404 8,-398 8,-392 8,-392 8,-20 8,-20 8,-14 14,-8 20,-8"/>
<text text-anchor="middle" x="44.5" y="-391.2" font-family="Times New Roman,serif" font-size="11.00" fill="gray">Global</text>
</g>
<!-- \\Cody -->
<g id="node1" class="node"><title>\\Cody</title>
<polygon fill="none" stroke="black" points="71.5,-376 17.5,-376 17.5,-340 71.5,-340 71.5,-376"/>
<text text-anchor="middle" x="44.5" y="-355.2" font-family="Courier,monospace" font-size="11.00">Cody</text>
</g>
<!-- \\Debby -->
<g id="node2" class="node"><title>\\Debby</title>
<polygon fill="none" stroke="black" points="71.5,-322 17.5,-322 17.5,-286 71.5,-286 71.5,-322"/>
<text text-anchor="middle" x="44.5" y="-301.2" font-family="Courier,monospace" font-size="11.00">Debby</text>
</g>
<!-- \\Emma -->
<g id="node3" class="node"><title>\\Emma</title>
<polygon fill="none" stroke="black" points="71.5,-268 17.5,-268 17.5,-232 71.5,-232 71.5,-268"/>
<text text-anchor="middle" x="44.5" y="-247.2" font-family="Courier,monospace" font-size="11.00">Emma</text>
</g>
<!-- \\Maggy -->
<g id="node4" class="node"><title>\\Maggy</title>
<polygon fill="none" stroke="black" points="71.5,-214 17.5,-214 17.5,-178 71.5,-178 71.5,-214"/>
<text text-anchor="middle" x="44.5" y="-193.2" font-family="Courier,monospace" font-size="11.00">Maggy</text>
</g>
<!-- \\Phoebe -->
<g id="node5" class="node"><title>\\Phoebe</title>
<polygon fill="none" stroke="black" points="73,-160 16,-160 16,-124 73,-124 73,-160"/>
<text text-anchor="middle" x="44.5" y="-139.2" font-family="Courier,monospace" font-size="11.00">Phoebe</text>
</g>
<!-- \\Reta -->
<g id="node6" class="node"><title>\\Reta</title>
<polygon fill="none" stroke="black" points="71.5,-106 17.5,-106 17.5,-70 71.5,-70 71.5,-106"/>
<text text-anchor="middle" x="44.5" y="-85.2" font-family="Courier,monospace" font-size="11.00">Reta</text>
</g>
<!-- \\Ruth -->
<g id="node7" class="node"><title>\\Ruth</title>
<polygon fill="none" stroke="black" points="71.5,-52 17.5,-52 17.5,-16 71.5,-16 71.5,-52"/>
<text text-anchor="middle" x="44.5" y="-31.2" font-family="Courier,monospace" font-size="11.00">Ruth</text>
</g>
</g>
</svg>
